<svg width="317" height="280" viewBox="0 0 317 280" fill="none" xmlns="http://www.w3.org/2000/svg">
<path fill-rule="evenodd" clip-rule="evenodd" d="M345.412 126.319L336.593 102.797L232.448 141.844L314.383 66.6272L297.395 48.1221L213.338 125.288L260.562 21.4126L237.694 11.0164L192.432 110.576L198.248 1.36518L173.164 0.0291608L167.009 115.587L126.384 7.23092L102.862 16.0497L143.487 124.406L62.8783 41.3779L44.8548 58.8762L121.037 137.344L21.4771 92.0815L11.0817 114.949L114.956 162.173L0.885924 159.291L0.252141 184.403L111.441 187.213L7.29556 226.259L16.1144 249.781L120.26 210.734L38.3253 285.951L55.3119 304.456L139.371 227.291L92.1468 331.166L115.013 341.561L160.276 242.002L154.459 351.213L179.544 352.548L185.699 236.992L226.324 345.348L249.846 336.529L209.22 228.172L289.829 311.2L307.853 293.702L231.671 215.234L331.23 260.496L341.627 237.629L237.752 190.406L351.821 193.287L352.456 168.176L241.267 165.366L345.412 126.319Z" fill="url(#paint0_linear_3028_169)"/>
<defs>
<linearGradient id="paint0_linear_3028_169" x1="341.003" y1="114.558" x2="-61.6767" y2="236.4" gradientUnits="userSpaceOnUse">
<stop stop-color="#2EB24C"/>
<stop offset="1" stop-color="#016241" stop-opacity="0"/>
</linearGradient>
</defs>
</svg>
