<svg width="1000" height="351" viewBox="0 0 1000 351" fill="none" xmlns="http://www.w3.org/2000/svg">
<path fill-rule="evenodd" clip-rule="evenodd" d="M535.715 0L464.286 0V111.009L345.811 8.08321L279.583 17.4751L401.128 123.067L171.701 42.5386L121.193 60.2669L341.088 137.45L56.1205 93.7488L27.523 116.723L329.053 162.964L0 162.964L0 188.036L329.052 188.036L27.5231 234.277L56.1205 257.251L341.088 213.55L121.193 290.733L171.701 308.461L401.128 227.932L279.583 333.525L345.811 342.916L464.286 239.991V351H535.715V239.991L654.19 342.916L720.415 333.525L598.875 227.932L828.3 308.461L878.805 290.733L658.91 213.55L943.88 257.251L972.475 234.277L670.95 188.036L1000 188.036V162.964L670.945 162.964L972.475 116.723L943.88 93.7488L658.91 137.45L878.805 60.2667L828.3 42.5386L598.875 123.067L720.415 17.4751L654.19 8.08321L535.715 111.009V0Z" fill="url(#paint0_linear_3028_169)"/>
<defs>
<linearGradient id="paint0_linear_3028_169" x1="500" y1="0" x2="490.408" y2="420.56" gradientUnits="userSpaceOnUse">
<stop stop-color="#2EB24C"/>
<stop offset="1" stop-color="#016241" stop-opacity="0"/>
</linearGradient>
</defs>
</svg>
