 <svg
              xmlns="http://www.w3.org/2000/svg"
              width="50"
              height="50"
              viewBox="0 0 50 50"
              fill="none"
            >
              {/* Your SVG Path */}
              <g clip-path="url(#clip0_5326_130943)">
              <path
                d="M45.3125 0H4.6875C2.09867 0 0 2.09867 0 4.6875V45.3125C0 47.9013 2.09866 50 4.6875 50H45.3125C47.9013 50 50 47.9013 50 45.3125V4.6875C50 2.09867 47.9013 0 45.3125 0Z"
                fill="#002032"
              />
              <path
                fill-rule="evenodd"
                clip-rule="evenodd"
                d="M24.9999 3.83301C16.7499 3.83301 9.60408 8.56218 6.12491 15.4372C6.93741 15.2288 7.77074 15.0413 8.58324 14.8747C11.9791 9.37468 18.0624 5.70801 24.9999 5.70801C33.5416 5.70801 40.7707 11.2497 43.3124 18.9372C44.0624 19.0413 44.7916 19.2913 45.4791 19.708C43.1457 10.583 34.8541 3.83301 24.9999 3.83301ZM5.37491 32.9164C6.85408 36.6039 9.35408 39.7705 12.5207 42.083V39.708C10.3749 37.8747 8.62491 35.583 7.43741 32.9788C7.06241 33.0622 6.66658 33.1247 6.31241 33.1247C5.95824 33.1455 5.64574 33.0622 5.37491 32.9164ZM40.9999 35.7913C37.5416 40.9164 31.6666 44.2913 24.9999 44.2913C22.6249 44.2913 20.3541 43.8539 18.2499 43.083L16.3957 44.3538C19.0207 45.5205 21.9374 46.1663 24.9791 46.1663C34.4166 46.1663 42.3957 39.9997 45.1249 31.4788C44.8124 31.6038 44.4999 31.7289 44.1666 31.8122C43.7916 31.9164 43.3957 31.9789 42.9999 31.9789C43.1457 32.4164 43.2916 32.8747 43.4166 33.3122C43.6874 34.2913 43.1457 35.1872 42.1874 35.458L40.9999 35.7913Z"
                fill="#FFB941"
              />
              <path
                fill-rule="evenodd"
                clip-rule="evenodd"
                d="M25.0001 7.41699C19.2084 7.41699 14.0626 10.2295 10.8542 14.5628C11.6667 14.5212 12.5001 14.5837 13.2292 14.8128C15.0417 15.3962 16.0625 16.8753 16.5 18.667C16.6667 19.3545 16.6042 20.042 16.4376 20.7087C16.3959 20.8962 16.3334 21.0837 16.2501 21.2503C16.3751 21.0837 16.5209 20.917 16.6667 20.7503C17.9376 19.3545 19.6042 18.7295 21.4792 18.7295C23.1876 18.7295 24.6667 19.3753 25.8542 20.6045C26.0001 20.7503 26.1459 20.917 26.2709 21.0837C27.1042 20.1462 28.1251 19.4378 29.3959 19.0628C31.2084 18.5212 32.9584 18.8545 34.5626 19.8128C35.0001 20.0837 35.4167 20.3962 35.7709 20.7503C35.8125 20.7295 35.8334 20.7295 35.875 20.7087C36.4167 20.4795 37.0001 20.2087 37.5626 20.042C38.0417 19.917 38.4792 19.9587 38.8542 20.167C39.3959 19.7087 40.0001 19.3128 40.6876 19.1253C40.9584 19.042 41.2292 19.0003 41.5 18.9587C39.0417 12.2295 32.5834 7.41699 25.0001 7.41699ZM14.1459 38.8337V42.8128C14.125 43.0212 14.2292 43.2087 14.3959 43.3128C14.5834 43.417 14.7917 43.417 14.9584 43.292L18.0834 41.167C20.2084 42.0628 22.5417 42.5837 24.9792 42.5837C30.4167 42.5837 35.2709 40.1045 38.5001 36.2295C37.8334 36.1045 37.3125 35.6253 37.125 34.9378L35.6251 29.3753C35.2709 29.6253 34.875 29.7712 34.4375 29.7712C34.4375 29.8337 34.4375 29.8753 34.4375 29.917C34.4167 30.5212 34.3751 31.3545 34.0626 31.8753C33.8126 32.292 33.4167 32.5003 32.9792 32.6253C31.1875 33.1253 29.3751 32.542 27.8334 31.6045C27.3751 31.3337 26.9584 31.0212 26.5834 30.6878C25.3126 31.917 23.5625 32.292 21.8334 32.292C19.9792 32.292 18.2709 31.7503 16.9167 30.4795C16.7709 30.3337 16.6251 30.1878 16.4792 30.0212C15.3542 30.9587 13.8542 31.5003 12.4792 31.8337C12.2292 31.8962 11.9792 31.9587 11.75 32.0003C11.5209 32.0628 11.2709 32.1045 11.0417 32.167C10.4167 32.3128 9.79172 32.4587 9.16672 32.6045C10.3126 35.0628 12.0417 37.1878 14.1459 38.8337Z"
                fill="#FFDA45"
              />
              <path
                fill-rule="evenodd"
                clip-rule="evenodd"
                d="M35.1461 32.5836C34.7295 33.2711 34.0836 33.667 33.3128 33.8962C31.167 34.5003 29.0003 33.8545 27.1461 32.7295C26.9586 32.6045 26.7711 32.4795 26.5836 32.3545C25.1878 33.2712 23.5003 33.6045 21.8128 33.6045C19.7711 33.6045 17.8753 33.042 16.3128 31.7295C15.2295 32.3962 13.9794 32.8128 12.7503 33.1253C12.5003 33.1878 12.2503 33.2503 12.0211 33.292C11.7919 33.3545 11.542 33.3962 11.3128 33.4587C10.792 33.5837 10.2711 33.7086 9.77112 33.8336C9.54195 33.4378 9.33362 33.042 9.14612 32.6462C9.77112 32.5003 10.3961 32.3545 11.0211 32.2087C11.2503 32.1462 11.5003 32.1045 11.7295 32.042C11.9586 32.0003 12.2086 31.9378 12.4586 31.8753C13.8336 31.542 15.3336 31.0003 16.4586 30.0628C16.6045 30.2295 16.7503 30.3753 16.8961 30.5212C18.2503 31.8128 19.9795 32.3337 21.8128 32.3337C23.542 32.3337 25.292 31.9587 26.5628 30.7295C26.9378 31.0628 27.3545 31.3753 27.8128 31.6461C29.3545 32.5836 31.167 33.167 32.9586 32.667C33.3961 32.542 33.792 32.3337 34.042 31.917C34.3545 31.3962 34.3961 30.5628 34.417 29.9587C34.417 29.917 34.417 29.8545 34.417 29.8128C34.8545 29.8128 35.2503 29.667 35.6045 29.417L37.1045 34.9795C37.292 35.667 37.8128 36.1462 38.4795 36.2712C38.167 36.6462 37.8545 36.9795 37.5211 37.3337C36.7086 36.9587 36.0836 36.2503 35.8336 35.3128L35.1461 32.5836Z"
                fill="#FFB941"
              />
              <path
                fill-rule="evenodd"
                clip-rule="evenodd"
                d="M16.6253 27.5001C16.5628 27.6667 16.4795 27.8126 16.3961 27.9584C15.7503 29.1042 14.3336 29.9376 12.1461 30.4584C11.9795 30.5001 11.7295 30.5626 11.417 30.6251C11.1045 30.7084 10.8545 30.7501 10.7086 30.7917C8.25031 31.3959 6.77114 31.6876 6.29197 31.7084C6.08364 31.7084 5.95864 31.6251 5.91697 31.4584C5.75031 30.7501 5.52114 29.6667 5.2503 28.1876C4.97947 26.7292 4.77114 25.6251 4.58364 24.9167C4.39614 24.1459 4.00031 22.7084 3.41697 20.5834C3.27114 20.0417 3.02114 19.2292 2.70864 18.1459L2.66697 18.0001C2.6253 17.8751 2.70864 17.7709 2.91697 17.6876C3.12531 17.6042 3.89614 17.4167 5.22948 17.0834C7.35448 16.5626 8.60447 16.2709 8.95864 16.2084C10.6045 15.8751 11.8961 15.8542 12.792 16.1251C13.9795 16.5001 14.7503 17.4584 15.1253 18.9584C15.2295 19.3542 15.2086 19.7917 15.0628 20.2917C14.9586 20.6459 14.8128 21.0209 14.6045 21.3959C14.417 21.7292 14.3336 21.8334 14.3336 21.8542C14.3545 21.8959 14.4378 21.9584 14.6461 22.0001C15.1878 22.1459 15.6461 22.4792 16.0628 23.0001C16.2711 23.2501 16.417 23.5209 16.5628 23.8126C16.7711 22.9792 17.167 22.2501 17.7295 21.6459C18.667 20.6042 19.9378 20.0834 21.5003 20.0834C22.8128 20.0834 23.9378 20.5626 24.8545 21.5209C25.542 22.2292 25.9586 23.0417 26.1461 23.9376C26.2711 23.6042 26.4378 23.2709 26.6461 22.9376C27.4586 21.5834 28.5211 20.7292 29.8336 20.3334C31.1878 19.9376 32.5211 20.1251 33.8753 20.9376C34.542 21.3334 35.042 21.8334 35.417 22.4376C35.667 22.2917 36.0211 22.1251 36.4795 21.9167C37.1461 21.6042 37.6461 21.4167 37.9586 21.3334C38.2086 21.2709 38.417 21.3959 38.542 21.7292C38.667 22.0626 38.7711 22.2084 38.8336 22.2084C38.8753 22.1667 39.0003 21.9792 39.542 21.4376C40.0836 20.9167 40.6045 20.5626 41.1253 20.4376C42.5628 20.0417 43.8336 20.2084 44.9586 20.9167C46.042 21.6042 46.7711 22.6876 47.167 24.1459C47.5628 25.5626 47.4586 26.8542 46.8753 28.0209C46.2711 29.2292 45.2711 30.0209 43.8961 30.3959C43.3753 30.5417 42.8128 30.5626 42.1461 30.4584C41.5003 30.3751 41.1878 30.3126 41.2503 30.2917C41.167 30.3126 41.1461 30.4167 41.2086 30.6251C41.292 30.9584 41.4586 31.4584 41.667 32.1251C41.8753 32.7917 42.042 33.2917 42.1253 33.6251C42.1878 33.8334 42.1045 33.9792 41.8753 34.0209L39.8545 34.5834C39.3961 34.7084 39.1045 34.7709 38.9586 34.7709C38.7503 34.7917 38.6253 34.6876 38.5628 34.4792L36.5003 26.8334C36.3753 26.3542 36.2295 25.9167 36.1045 25.5001C36.042 26.2084 35.792 26.8959 35.417 27.5417C35.0628 28.1251 34.667 28.3542 34.2295 28.2084C34.167 28.1876 33.5211 27.8751 32.292 27.2917C31.5628 26.9584 30.4795 26.4167 29.042 25.6876C28.8961 26.1251 28.9586 26.5626 29.2503 27.0209C29.5003 27.3959 29.8336 27.7084 30.2503 27.9792C30.7711 28.2917 31.3753 28.4792 32.0836 28.5209C32.3961 28.5209 32.6878 28.5209 33.0003 28.5001C33.0836 28.6251 33.1253 29.0626 33.0836 29.7709C33.042 30.4792 33.0003 30.9167 32.8961 31.0626C32.8753 31.1042 32.792 31.1459 32.6461 31.1876C31.4795 31.5209 30.1253 31.2292 28.6253 30.3126C27.2295 29.4584 26.3545 28.3751 25.9795 27.0417C25.8753 26.7084 25.8336 26.3542 25.8128 26.0209C25.7503 26.0626 25.667 26.0834 25.6045 26.1042C25.5211 26.1251 24.8128 26.1876 23.4795 26.3126C22.667 26.3959 21.4586 26.5001 19.8545 26.6251C19.9586 27.0834 20.2503 27.4167 20.7295 27.6667C21.1253 27.8542 21.5836 27.9584 22.0836 27.9584C22.6878 27.9584 23.3128 27.7917 23.917 27.4792C24.167 27.3126 24.4378 27.1667 24.6878 27.0001C24.8336 27.0626 25.0836 27.4167 25.417 28.0417C25.7503 28.6667 25.9378 29.0626 25.9378 29.2292C25.9378 29.2709 25.8753 29.3542 25.792 29.4584C24.9586 30.3542 23.667 30.7917 21.8961 30.7917C20.2711 30.7917 18.9378 30.3126 17.9378 29.3542C17.292 28.9167 16.8753 28.2501 16.6253 27.5001ZM43.417 25.1876C43.2711 24.6667 42.9795 24.2292 42.5628 23.9376C42.1045 23.6251 41.6045 23.5209 41.0836 23.6667C40.5628 23.8126 40.1878 24.1251 39.9795 24.6459C39.8128 25.1042 39.792 25.6042 39.9378 26.1459C40.0836 26.7084 40.3545 27.1459 40.7503 27.4376C41.167 27.7501 41.667 27.8334 42.2086 27.6876C43.3961 27.3542 43.792 26.5209 43.417 25.1876ZM32.6045 25.2292C32.8336 24.8751 32.8961 24.4792 32.792 24.0417C32.7086 23.6042 32.4795 23.2917 32.1253 23.0626C31.7503 22.8334 31.3545 22.8126 30.9378 22.9584C30.542 23.1042 30.2295 23.3751 30.0003 23.7501C29.8961 23.8959 29.9378 24.0417 30.1045 24.1251C30.542 24.3959 31.2503 24.7292 32.2295 25.1667C32.4378 25.2917 32.5628 25.2917 32.6045 25.2292ZM22.6045 24.3751C22.6045 23.9584 22.4586 23.5834 22.1461 23.2501C21.8545 22.9376 21.4795 22.7709 21.0628 22.7709C20.6253 22.7709 20.2711 22.9584 20.0003 23.3126C19.7503 23.6459 19.6045 24.0417 19.6045 24.4792C19.6045 24.6667 19.7086 24.7501 19.8961 24.7501C20.3961 24.7501 21.1878 24.6876 22.2503 24.5417C22.5003 24.5209 22.6045 24.4584 22.6045 24.3751ZM11.1461 20.0417C11.0003 19.4584 10.6253 19.1667 10.0211 19.1042C9.68781 19.0834 9.14614 19.1667 8.41697 19.3334C7.70864 19.5001 7.35447 19.6459 7.37531 19.7501C7.39614 19.8751 7.43781 20.0626 7.47947 20.3334C7.52114 20.6042 7.56281 20.7917 7.58364 20.9167C7.75031 21.5834 7.89614 21.9376 8.02114 22.0001C8.10447 22.0417 8.54197 21.9792 9.3128 21.7917C10.7086 21.4584 11.3336 20.8751 11.1461 20.0417ZM12.792 25.5626C12.6461 24.9584 12.292 24.6251 11.7503 24.5209C11.3961 24.4584 10.8545 24.5209 10.1461 24.7084C9.29197 24.9167 8.81281 25.0626 8.77114 25.1459C8.70864 25.2292 8.77114 25.6459 8.95864 26.3959C9.14614 27.1876 9.29198 27.6042 9.39614 27.6667C9.50031 27.7292 10.0003 27.6459 10.8753 27.4376C11.6045 27.2709 12.0836 27.0834 12.3545 26.8959C12.792 26.5834 12.9378 26.1459 12.792 25.5626Z"
                fill="white"
              />
            </g>
            <defs>
              <clipPath id="clip0_5326_130943">
                <path
                  d="M0 4.6875C0 2.09867 2.09867 0 4.6875 0H45.3125C47.9013 0 50 2.09867 50 4.6875V45.3125C50 47.9013 47.9013 50 45.3125 50H4.6875C2.09866 50 0 47.9013 0 45.3125V4.6875Z"
                  fill="white"
                />
              </clipPath>
            </defs>
            </svg>